<?xml version="1.0" encoding="utf-8"?>
<!-- Generator: Adobe Illustrator 15.0.0, SVG Export Plug-In . SVG Version: 6.00 Build 0)  -->
<!DOCTYPE svg PUBLIC "-//W3C//DTD SVG 1.1//EN" "http://www.w3.org/Graphics/SVG/1.1/DTD/svg11.dtd">
<svg version="1.1" id="Layer_1" xmlns="http://www.w3.org/2000/svg" xmlns:xlink="http://www.w3.org/1999/xlink" x="0px" y="0px"
	 width="612px" height="792px" viewBox="0 0 612 792" enable-background="new 0 0 612 792" xml:space="preserve">
<g id="XMLID_2_">
	<g>
		<path fill="#7C7B65" d="M458.832,378.446c-0.13-2.556-0.021-5.212-0.16-7.878c-0.08-1.388,0.05-2.736,0-4.094
			c-0.06-1.428-0.509-2.815-0.629-4.243c-0.14-1.627,0.14-3.245,0-4.723c-0.1-1.008-0.47-1.997-0.479-3.005
			c-0.02-2.336,0.829-4.523,0.789-7.089c-0.01-0.929-0.229-1.817-0.31-2.836c-0.38-4.763,0.559-9.695-0.16-14.168
			c-0.759-0.509-1.148-1.378-1.887-1.887c-3.664,1.618-8.067,0.25-12.451,0.31c-1.757,0.03-3.325,0.429-5.032,0.319
			c-0.898-0.07-1.897-0.429-2.836-0.469c-1.308-0.07-2.646,0.26-3.943,0.15c-0.839-0.06-1.708-0.539-2.676-0.629
			c-2.736-0.24-5.871,0.319-7.399-0.779c-2.097-1.528-1.567-5.741-0.639-8.667c0.529-1.647,1.577-3.654,2.836-4.094
			c1.208-0.449,2.886-0.189,4.253-0.16c1.349,0.02,2.606,0.459,3.784,0.469c1.358,0.02,2.776-0.649,3.935-0.789
			c3.884-0.459,7.918,0.609,11.343,0.789c1.937,0.09,3.854-0.29,5.831-0.31c1.018-0.01,1.946,0.28,2.995,0.31
			c1.317,0.04,2.686-0.27,4.094-0.31c1.388-0.05,2.886,0.08,4.253,0c2.637-0.16,6.371-0.878,9.766-0.479
			c1.508,0.18,2.246,0.849,3.465,0.938c1.108,0.11,2.466-0.22,3.784-0.31c1.298-0.09,2.466-0.02,3.774,0
			c1.237,0.02,2.516-0.33,3.784-0.31c0.239,0,0.528,0.27,0.788,0.31c0.729,0.09,1.827-0.09,2.676-0.15
			c2.677-0.189,5.322-0.27,7.878-0.16c2.587,0.09,5.143,0.709,7.399,0.619c1.577-0.06,3.854-1.068,5.352-0.459
			c1.558,0.619,2.286,3.355,2.366,5.671c0.1,2.756-0.998,5.382-1.418,6.77c-7.259,1.198-16.325,0.399-24.412,0.789
			c-0.31,0.01-0.649-0.06-0.949,0c-0.229,0.03-0.409,0.299-0.629,0.31c-1.238,0.09-2.456-0.22-3.624-0.15
			c-0.919,0.05-2.097,0.33-3.305,0.469c-1.139,0.13-2.467,0.04-3.306,0.31c-0.878,0.29-2.605,2.027-2.835,3.155
			c-0.25,1.188,0.459,3.125,0.469,4.573c0.021,2.396-0.868,5.172-0.629,7.079c0.109,0.889,0.929,1.638,1.099,2.676
			c0.209,1.248,0.13,3.544,0,5.192c-0.08,1.118-0.47,2.007-0.47,2.846c0,1.038,0.439,2.086,0.47,3.155
			c0.04,1.348-0.34,2.776-0.47,4.244c-0.13,1.548,0.021,3.115-0.159,4.573c-0.101,0.849-0.529,1.677-0.63,2.526
			c-0.239,2.097-0.249,4.593-0.159,6.77c0.06,1.208,0.589,2.287,0.789,3.465c0.429,2.426-0.101,4.823-0.16,7.548
			c-0.021,1.318,0.239,2.586,0.16,3.954c-0.051,0.938-0.31,1.897-0.31,2.835c-0.011,0.949,0.27,1.837,0.31,2.826
			c0.05,0.929-0.181,1.917-0.16,2.836c0.04,1.348,0.639,2.995,0.789,4.413c0.549,5.202-0.869,11.643-0.47,17.633
			c0.149,2.327,0.39,4.893,0,7.729c-0.249,1.808-0.319,3.784-0.629,4.883c-0.459,1.627-2.876,4.293-3.934,4.562
			c-0.799,0.21-2.587,0-4.104,0c-1.407,0-3.025,0.22-3.934,0c-1.368-0.329-3.235-2.726-3.624-4.243
			c-0.68-2.626-0.101-6.62-0.31-9.925c-0.07-1.049-0.43-2.007-0.479-2.836c-0.07-1.308,0.229-2.676,0.159-3.934
			c-0.159-3.016-0.688-5.971-0.469-8.986c0.109-1.598,0.499-3.186,0.629-4.723c0.35-4.434-0.16-9.066-0.16-13.699
			c0-2.856,0.649-5.682,0.63-8.507C459.142,380.434,458.871,379.445,458.832,378.446z"/>
		<path fill="#7C7B65" d="M343.838,421.771c1.877,0.639,3.724,1.357,5.831,2.047c0.648,0.199,1.278,0.539,1.887,0.629
			c1.278,0.189,2.626-0.09,3.944,0c0.889,0.06,1.817,0.399,2.676,0.479c1.118,0.09,2.387,0.06,3.624,0.149
			c1.398,0.1,2.597,0.359,3.935,0.319c1.717-0.06,3.515-0.509,5.202-0.629c0.938-0.08,1.717-0.18,2.676-0.319
			c0.889-0.12,1.847-0.03,2.676-0.16c0.769-0.13,1.808-0.679,2.676-0.938c0.998-0.319,2.077-0.489,2.836-0.799
			c0.749-0.289,1.338-0.898,2.047-1.418c0.679-0.489,1.447-0.809,2.047-1.258c1.728-1.248,3.025-3.175,4.413-4.723
			c0.929-2.416,1.028-4.772,1.418-8.038c0.31-2.565,0.18-4.453-0.789-6.6c-0.659-1.468-1.927-2.735-2.995-4.104
			c-1.028-1.328-2.057-2.936-3.146-3.944c-0.809-0.739-2.177-1.388-3.465-2.196c-1.787-1.139-2.796-2.077-4.882-3.005
			c-0.529-0.23-1.108-0.689-1.418-0.779c-0.72-0.19-1.518,0.01-2.207-0.16c-1.078-0.27-2.516-1.348-3.784-1.737
			c-0.749-0.22-1.527-0.09-2.207-0.31c-0.828-0.279-1.677-0.948-2.516-1.408c-2.337-1.308-5.651-2.795-8.816-3.005
			c-2.776-1.328-5.691-3.045-8.348-4.723c-1.357-0.849-2.565-2.007-3.943-3.155c-2.047-1.697-4.753-3.485-6.301-5.661
			c-0.729-1.029-1.348-2.347-2.047-3.465c-1.088-1.748-2.057-2.906-2.836-5.042c-0.369-1.028-0.738-1.997-1.258-3.145
			c-0.659-1.468-0.929-4.812-0.629-7.409c0.09-0.839,0.539-1.667,0.629-2.516c0.13-1.248-0.159-2.646,0-3.784
			c0.14-0.979,0.819-1.947,0.948-2.846c0.16-1.198-0.069-2.716,0.31-4.083c0.061-0.22,0.33-0.569,0.47-0.949
			c0.289-0.779,0.419-1.068,0.789-1.737c0.839-1.498,2.336-3.335,3.784-5.032c1.468-1.737,2.965-3.665,4.094-4.563
			c1.078-0.889,2.875-1.737,4.572-2.846c0.729-0.469,1.538-0.979,2.356-1.408c1.368-0.729,2.117-1.148,3.784-1.578
			c1.009-0.26,2.457-1.019,3.625-1.258c1.657-0.359,3.674-0.25,5.512-0.629c1.647-0.35,2.676-1.128,4.723-1.268
			c2.217-0.14,4.503,0.16,6.77,0.16c1.717,0,3.425-0.27,5.042-0.16c2.586,0.18,5.192,0.999,7.878,1.268
			c0.849,0.07,1.817-0.13,2.676,0c0.449,0.06,0.909,0.469,1.578,0.629c0.559,0.13,1.288-0.03,1.887,0.15
			c0.629,0.18,1.428,0.938,2.366,1.268c2.077,0.719,4.363,0.759,5.831,1.887c3.325,2.546,2.217,8.816,2.047,13.689
			c-0.998,0.439-1.268,1.518-2.206,1.587c-0.729,0.06-1.708-0.829-2.676-1.258c-1.068-0.479-2.097-0.669-2.676-1.258
			c-2.916-0.07-4.594-0.629-7.09-1.428c-0.429-0.13-0.849-0.539-1.268-0.619c-0.759-0.16-1.697-0.03-2.517-0.16
			c-0.778-0.13-1.468-0.399-2.206-0.469c-1.978-0.22-4.054,0.24-6.141,0c-0.859-0.11-1.538-0.549-2.367-0.629
			c-1.118-0.12-2.296,0.379-3.464,0.469c-1.278,0.1-2.597-0.11-3.935,0c-2.166,0.18-4.004,1.278-5.831,1.567
			c-1.587,1.258-3.943,1.847-5.831,3.155c-0.679,0.469-1.577,1.338-2.356,2.047c-1.677,1.528-2.187,2.256-3.155,4.563
			c-0.319,0.769-0.828,1.688-0.938,2.356c-0.18,1.068,0.229,2.366,0.15,3.634c-0.061,1.008-0.619,2.067-0.629,2.996
			c-0.011,1.278,0.888,2.436,0.629,3.784c2.256,3.874,5.062,6.709,9.136,9.126c0.858,0.519,1.857,0.988,2.686,1.567
			c0.809,0.579,1.408,1.458,2.197,1.907c0.499,0.27,1.277,0.359,1.896,0.619c1.458,0.619,3.335,1.368,5.032,2.047
			c1.129,0.449,2.396,0.858,3.475,1.428c1.039,0.539,1.938,1.318,2.985,1.728c2.237,0.878,4.743,1.148,6.62,2.676
			c2.437-0.14,4.394,0.679,5.981,1.567c1.308,0.739,2.596,1.777,3.784,2.676c0.579,0.439,1.188,0.928,1.737,1.417
			c1.028,0.969,1.697,1.627,3.145,2.376c2.187,1.128,4.094,2.426,5.512,4.563c0.589,0.889,0.948,2.047,1.578,3.155
			c0.568,0.988,1.237,1.957,1.727,2.985c0.489,1.019,0.969,2.177,1.418,3.315c0.46,1.138,1.158,2.296,1.418,3.305
			c0.839,3.165,0.16,7.129,0.16,10.404c0,2.007,0.26,3.475-0.16,5.352c-0.399,1.857-1.228,4.054-1.887,5.98
			c-0.659,1.917-1.368,2.876-2.517,4.573c-0.608,0.889-0.998,2.057-1.577,2.836c-0.819,1.078-2.966,3.135-4.094,3.934
			c-1.089,0.779-2.566,1.388-3.944,2.207c-3.035,1.787-6.569,3.714-10.234,5.042c-0.729,0.26-1.558,0.639-2.206,0.789
			c-0.669,0.14-1.468,0.02-2.207,0.149c-0.599,0.1-1.178,0.409-1.728,0.479c-3.704,0.409-7.748,0.13-11.812,0.149
			c-1.059,0-2.207,0.34-3.315,0.31c-1.797-0.01-3.764-0.35-5.511-0.778c-1.668-0.42-3.306-1.099-5.043-1.269
			c-1.887-0.149-3.864,0.18-5.671,0c-1.647-0.149-3.275-0.988-4.723-1.567c-0.31-0.13-0.669-0.01-0.949-0.16
			c-1.747-0.898-4.433-1.927-6.609-2.676c-1.258-1.048-2.107-2.516-2.836-4.104c-0.279-3.385,0.759-5.871,0.31-8.977
			c0.6-0.979,1.827-1.308,2.836-1.877c2.437-0.26,4.023,0.439,5.99,1.248C341.212,421.062,342.569,421.341,343.838,421.771z"/>
		<path fill="#7C7B65" d="M240.506,314.185c3.964-0.04,7.868,0,11.662,0c0.989,0,2.007-0.06,2.996,0
			c0.918,0.05,1.837,0.369,2.676,0.319c0.639-0.04,1.288-0.409,1.887-0.469c3.065-0.339,5.891,0.469,8.667,0.629
			c1.528,0.08,3.056-0.25,4.723-0.319c1.139-0.06,2.356,0.18,3.465,0.16c2.426-0.05,4.763-0.469,6.93-0.319
			c1.417,0.1,2.746,0.539,4.094,0.629c1.597,0.09,3.435-0.11,5.202-0.15c1.777-0.05,3.485,0.33,5.042,0.31
			c1.877-0.03,3.774-1.318,5.981-0.789c0.649,0.16,2.316,1.607,2.676,2.366c0.14,0.29,0.04,0.909,0.16,1.418
			c0.1,0.389,0.429,0.649,0.469,0.938c0.25,1.677-0.04,4.034-0.469,5.362c-0.499,1.558-2.227,3.315-3.145,3.784
			c-1.478,0.739-3.754,0.509-6.3,0.629c-2.287,0.11-4.703,0.2-6.62,0c-1.138-0.14-2.137-0.539-3.145-0.629
			c-1.917-0.17-4.054,0.27-6.151,0.31c-2.106,0.03-4.313-0.379-6.141-0.16c-0.769,0.1-1.577,0.539-2.366,0.629
			c-3.814,0.469-8.157-0.15-12.281-0.15c-4.054,0-8.118-0.479-11.502,0.779c-0.25,0.659-0.938,1.108-1.098,1.578
			c-0.649,1.887,0.1,4.503,0,6.45c-0.05,1.058-0.399,2.107-0.469,3.165c-0.14,1.907-0.22,3.964-0.16,5.971
			c0.03,1.328,0.459,2.706,0.469,4.094c0.02,1.588-0.23,3.155-0.16,4.743c0.06,1.148,0.379,2.176,0.479,3.305
			c0.24,2.855-0.26,5.631-0.319,8.188c0.809,0.709,1.607,1.747,3.155,1.248c1.348-0.15,2.865-0.31,4.403-0.14
			c2.037,0.209,3.585,0.849,6.151,0.459c0.769-0.1,1.498-0.509,2.356-0.629c1.248-0.15,2.596-0.02,3.944,0
			c1.178,0.03,2.236,0.379,3.465,0.479c0.719,0.06,1.397-0.18,2.207-0.17c1.737,0.08,4.393,0.539,6.61,0.489
			c1.607-0.05,3.155-0.14,4.573-0.17c1.448-0.01,2.656,0.29,3.934,0.33c1.458,0.03,3.016-0.569,4.413-0.33
			c1.638,0.3,3.984,2.486,4.403,3.784c0.569,1.738,0.03,3.944-0.31,5.682c-0.369,1.877-0.809,3.415-1.887,4.403
			c-3.904-0.28-7.519,1.218-11.662,0.938c-2.167-0.14-4.613-0.929-7.089-0.938c-2.087-0.01-4.383,0.27-6.77,0.149
			c-2.237-0.1-4.403-0.2-6.62,0c-1.957,0.18-4.223,0.559-6.3,0.639c-2.276,0.09-5.122-0.609-6.77-0.16
			c-0.988,0.27-1.298,1.248-2.047,2.047c-0.18,3.964-0.819,7.878-0.319,12.451c0.18,1.567,0.699,3.005,0.629,4.553
			c-0.04,1.028-0.509,1.957-0.629,3.006c-0.14,1.298,0.18,2.766,0.16,4.253c-0.03,2.307-0.619,4.693-0.469,6.62
			c0.149,2.097,0.968,3.924,1.098,5.971c1.258,2.177,4.114,2.756,8.038,2.676c1.658-0.02,3.375-0.409,5.042-0.31
			c1.318,0.08,2.516,0.569,3.614,0.64c1.198,0.06,2.417-0.43,3.625-0.479c1.298-0.05,2.566,0.109,3.944,0
			c2.566-0.22,5.482-0.439,8.657-0.629c1.737-0.11,3.525-0.3,5.042-0.16c1.048,0.09,2.097,0.569,3.155,0.629
			c2.815,0.17,5.511-0.828,8.188-0.629c1.008,0.08,2.027,0.56,2.995,0.629c2.237,0.17,4.084-0.648,5.981,0.16
			c1.687,0.688,2.107,2.486,2.367,4.872c0.209,2.037,0.608,5.062,0.159,6.62c-0.299,1.049-2.426,2.676-3.784,2.846
			c-1.548,0.18-4.823-0.879-6.62-0.948c-1.058-0.04-2.067,0.339-2.985,0.319c-1.198-0.04-2.117-0.439-3.155-0.479
			c-1.478-0.05-3.035,0.27-4.563,0.479c-1.408,0.189-2.835,0.629-4.253,0.778c-2.017,0.21-4.004-0.429-6.15-0.629
			c-2.796-0.239-5.642,0.539-8.188,0.629c-1.238,0.04-2.626-0.189-3.934-0.319c-2.496-0.199-5.272-0.499-7.878-0.31
			c-1.268,0.09-2.396,0.479-3.625,0.479c-2.256-0.03-4.933-0.809-7.718-0.948c-4.034-0.2-8.846,1.288-11.652,0.319
			c-1.228-0.439-2.916-2.356-3.315-3.784c-0.519-1.897-0.279-4.394-0.469-6.77c-0.18-2.347,0.15-4.523,0.16-6.77
			c0-1.987-0.45-3.984-0.47-5.991c-0.03-1.987,0.419-3.974,0.47-5.831c0.03-1.468-0.16-3.205-0.16-5.032
			c0-1.697-0.329-3.505-0.31-4.893c0.01-1.068,0.32-2.147,0.31-3.305c-0.01-3.015,0.3-6.839,0.16-10.404
			c-0.16-4.044-0.789-8.228-0.789-12.431c0-2.177,0.25-4.383,0.16-6.47c-0.1-2.027-0.619-4.023-0.629-5.971
			c-0.01-0.979,0.229-2.137,0.31-3.165c0.09-1.118,0.08-2.227,0.16-3.295c0.17-2.107,0.899-4.134,0.949-6.001
			c0.03-1.418-0.419-3.025-0.479-4.553c-0.18-4.703-0.669-9.366-0.938-13.879c-0.08-1.198-0.09-2.556,0-3.764
			c0.11-1.578,0.209-3.355,0.469-4.893c0.26-1.508,1.068-2.796,0.789-4.403C233.037,313.925,236.572,314.215,240.506,314.185z"/>
		<path fill="#7C7B65" d="M110.245,374.832c0.39,6.011-0.31,12.161,0.16,17.942c0.129,1.638,0.479,3.155,0.469,4.743
			c-0.01,0.948-0.26,1.877-0.32,2.825c-0.16,2.576-0.04,5.152-0.149,7.729c-0.12,2.486,0.379,4.843,0.309,7.229
			c-0.02,0.749-0.279,1.528-0.309,2.217c-0.28,5.552,0.309,11.283-0.629,16.065c-1.178,1.248-1.408,2.936-2.995,3.944
			c-1.698,1.048-5.052,1.128-7.718,0.778c-2.127-0.279-4.144-1.577-5.202-2.825c0.03-1.768-0.499-3.475-0.469-5.202
			c0.02-1.378,0.379-2.526,0.31-3.784c-0.07-1.548-0.629-3.725-0.469-5.991c0.09-1.288,0.229-2.825,0.629-4.243
			c0.11-0.39,0.409-0.699,0.469-1.108c0.689-4.663-1.238-10.504-1.258-15.746c-0.01-2.406,0.729-4.543,0.789-6.77
			c0.04-1.338-0.16-2.726-0.16-4.094c0-2.816,0.389-5.562,0-8.197c-0.14-0.979-0.569-1.997-0.629-3.005
			c-0.08-1.528,0.16-3.175,0.16-4.873c0-1.638-0.16-3.375,0-4.883c0.07-0.659,0.389-1.218,0.469-1.887
			c0.31-2.346-0.07-4.882,0.16-7.249c0.07-0.739,0.409-1.498,0.469-2.207c0.13-1.318,0.07-2.946,0-4.244
			c-0.06-1.418,0.06-2.716,0-3.954c-0.06-1.288-0.539-2.556-0.629-3.924c-0.05-0.829,0.06-1.697,0-2.536
			c-0.15-2.177-0.679-4.313,0.479-6.141c-0.579-1.847-0.149-3.934-0.319-5.981c-0.08-1.028-0.559-1.987-0.629-2.985
			c-0.05-0.829,0.25-1.757,0.319-2.676c0.2-2.866-0.649-6.47,0.779-8.517c2.836,0.09,4.184,2.576,5.831,4.253
			c1.398,1.418,2.896,2.976,4.414,4.403c0.749,0.729,1.967,1.248,2.835,2.067c0.929,0.849,1.887,2.336,2.996,3.455
			c1.717,1.757,3.255,3.025,4.094,5.512c3.495,3.934,7.558,7.159,11.023,11.193c0.999,1.158,1.857,2.576,2.835,3.774
			c1.997,2.446,4.563,4.423,5.831,7.399c4.154,3.255,8.257,7.479,12.132,11.512c0.329,0.33,0.609,0.779,0.938,1.088
			c0.858,0.829,2.187,1.658,2.995,2.676c0.43,0.559,0.569,1.198,0.949,1.737c1.677,2.446,4.264,4.434,6.45,6.62
			c0.819,0.809,1.857,1.607,2.686,2.526c0.569,0.639,0.969,1.478,1.568,2.197c1.108,1.328,2.346,2.626,3.465,4.094
			c1.538,2.027,2.346,3.275,4.732,5.052c1.847,1.378,3.105,3.984,5.032,1.717c-0.25-2.057,0.35-4.054,0-6.29
			c-0.09-0.609-0.499-1.108-0.629-1.728c-0.18-0.898-0.02-1.867-0.15-2.846c-0.109-0.759-0.429-1.598-0.479-2.366
			c-0.22-3.425,1.418-6.54,1.418-10.234c0-1.548-0.489-3.065-0.629-4.723c-0.11-1.418,0.15-2.796,0.16-4.264
			c0.01-2.396-0.32-4.942-0.32-7.389c0-2.616,0.22-5.242,0-7.409c-0.08-0.799-0.439-1.558-0.469-2.356
			c-0.04-1.019,0.37-1.987,0.469-3.005c0.22-2.097,0.26-4.463,0.32-6.77c0.07-2.376,0.209-4.913,0-7.079
			c-0.08-0.829-0.52-1.598-0.629-2.376c-0.06-0.419,0.18-0.779,0.16-1.248c-0.05-0.709-0.469-1.288-0.479-1.887
			c0-1.388,0.799-2.346,0.629-4.253c-0.14-1.737-1.348-3.654,0-5.212c-0.1-1.358,0.07-2.446,0.629-3.135
			c-0.03-0.689-0.619-1.318-0.629-2.067c0-0.359,0.32-0.759,0.479-1.398c0.13-0.579,0-1.258,0.149-1.737
			c0.09-0.27,0.47-0.429,0.639-0.789c0.14-0.31,0.18-0.819,0.31-1.108c0.549-1.208,0.829-1.578,1.108-3.315
			c0.05-0.33,0.31-0.599,0.31-0.779c0.01-0.999-0.379-1.378-0.16-2.356c0.149-0.669,0.559-1.268,1.108-1.887
			c0.17-1.028-0.16-1.987,0-2.995c0.09-0.579,0.459-0.969,0.629-1.578c0.209-0.799,0.29-1.757,0.469-2.686
			c0.449-2.227,0.789-5.362,1.578-7.409c0.339-0.869,0.898-1.657,1.258-2.516c0.399-0.918,0.689-1.807,1.418-2.356
			c0-0.519,0-1.048,0-1.567c0.679-1.128,1.728-2.067,2.207-3.485c0.18-0.509,0.12-1.178,0.319-1.717
			c0.549-1.518,1.777-2.606,2.676-3.625c0-0.469,0-0.958,0-1.428c1.008-0.779,1.688-1.977,2.356-3.135
			c0.309-0.539,0.619-1.558,1.108-2.047c0.639-0.669,1.688-0.829,2.207-1.578c0.759-1.118,0.769-3.145,1.567-4.413
			c0.619-0.979,2.236-1.528,3.155-2.516c0.699-0.749,1.078-1.598,2.366-1.907c1.708-3.165,5.412-4.343,9.605-5.032
			c1.607-0.649,2.766-1.757,4.094-2.676c2.167,0.2,3.984-0.949,5.511-1.887c3.146-1.957,6.101-5.092,9.456-6.63
			c1.667-0.749,3.754-1.088,5.512-1.887c1.777-0.789,3.275-2.027,4.882-2.516c1.488-0.449,3.105-0.359,4.563-0.779
			c0.659-0.2,1.119-0.739,1.738-0.958c0.609-0.2,1.577-0.15,2.366-0.31c0.699-0.13,1.567-0.409,2.197-0.469
			c1.128-0.11,2.266,0.09,3.475,0c1.448-0.11,2.866-0.669,4.403-0.799c3.255-0.25,6.61,0.379,10.244,0.799
			c0.209-0.229,1.358-0.938,1.098-0.629c0.549,0.699,0.879-0.18,1.737-0.31c2.586-0.419,6.051,1.068,8.817,0.629
			c0.938-0.16,1.677-0.779,2.516-0.789c0.679-0.01,1.308,0.209,1.897,0.469c0.37-0.33,1.019-0.13,1.578-0.31
			c0.529-0.2,0.759-0.549,1.258-0.639c0.809-0.14,1.837,0.07,2.676,0c2.845-0.2,5.781-1.228,8.507-1.268
			c1.098,0,2.496,0.19,4.094,0.33c0.589,0.05,1.198,0.319,1.737,0.31c0.569-0.02,1.148-0.31,1.727-0.31
			c0.759,0,1.827,0.539,2.996,0.629c1.388,0.09,2.905-0.339,4.253-0.16c0.669,0.09,1.378,0.579,2.047,0.629
			c0.649,0.06,1.309-0.229,1.888-0.16c0.568,0.07,1.088,0.479,1.896,0.639c1.618,0.319,3.016,0.14,3.614,0.629
			c0.529,0.419,0.999,1.937,1.108,2.826c0.21,1.777-0.05,4.204-0.319,6.311c-0.359,2.875-1.009,5.921-2.206,7.398
			c-0.829,0.35-1.429-0.319-2.197-0.31c-0.529,0-0.929,0.399-1.577,0.31c-1.028-0.16-1.568-1.118-2.526-1.268
			c-1.897-0.27-4.034,1.618-5.821,0c-0.979,0.33-1.947-0.339-2.836-0.31c-0.679,0.02-1.288,0.419-1.896,0.479
			c-0.779,0.05-1.857-0.04-2.516-0.17c-0.45-0.09-0.489-0.29-0.949-0.469c-0.359-0.14-0.739-0.04-1.098-0.16
			c-1.039-0.33-1.957-0.849-3.625-0.619c-0.639,0.09-1.378,0.569-2.047,0.619c-0.909,0.09-1.678-0.2-2.526-0.459
			c-0.948,0.2-1.757,0.549-2.516,0.929c-2.716-0.16-5.421,0.509-8.347,1.118c-0.809,0.17-1.488,0.439-2.207,0.459
			c-1.777,0.09-3.634-0.359-5.352-0.15c-0.589,0.08-1.148,0.579-1.737,0.619c-0.779,0.09-1.567-0.33-2.356-0.31
			c-0.979,0.04-1.847,0.659-2.835,0.799c-1.098,0.15-2.187-0.399-3.155-0.33c-0.679,0.06-1.178,0.529-1.887,0.639
			c-0.689,0.09-1.837-0.06-2.676,0c-2.047,0.14-3.055,0.409-4.573-0.469c-1.348,0.229-1.997,1.538-3.305,1.877
			c-0.649,0.18-1.298-0.09-2.047,0c-0.739,0.09-1.378,0.779-2.207,0.489c-1.697,1.647-4.563,2.296-7.249,2.197
			c-0.539,0.539-1.278,0.669-1.887,1.098c-0.749,0.529-1.388,1.268-2.047,1.887c-0.529,0-1.048,0-1.577,0
			c-0.849,0.529-1.558,1.178-2.047,2.047c-5.232,2.077-8.407,6.19-14.648,7.259c-0.729,0.2-0.918,0.909-1.578,1.258
			c-0.589,0.299-1.308,0.25-1.887,0.629c-0.929,0.579-1.398,1.887-2.676,1.887c-0.319,0.699-0.979,1.278-1.578,1.897
			c-0.948,0.958-1.467,1.957-3.155,2.207c-0.799,0.999-1.138,2.466-1.887,3.465c-0.549,0.719-1.298,0.909-2.047,1.408
			c-0.659,1.358-0.33,2.776-0.789,3.934c-0.349,0.909-1.258,1.298-1.737,2.047c-0.259,0.429-0.2,0.829-0.469,1.268
			c-0.209,0.339-0.449,0.559-0.629,0.938c-0.12,0.559,0.17,1.508,0,1.578c-0.898,2.097-2.227,3.764-3.625,5.362
			c-0.11,0.829-0.419,1.468-0.789,2.047c0.16,0.979,0.259,1.378,0,2.207c-0.29,0.909-1.068,1.068-1.258,1.887
			c-0.169,0.719,0.24,1.448,0.16,2.207c-0.09,0.839-0.669,1.647-0.789,2.516c-0.419,3.175,0.07,6.8-1.258,9.456
			c0.13,1.288-0.189,2.117-0.629,2.826c-0.12,0.759,0.559,0.709,0.469,1.428c-0.429,0.869-0.759,1.688-0.789,2.666
			c-0.02,0.649,0.29,1.228,0.319,1.907c0.03,0.858-0.279,1.847-0.319,2.835c-0.03,0.849,0.2,1.817,0.16,2.666
			c-0.05,1.158-0.519,2.296-0.469,3.475c0.03,0.819,0.379,1.688,0.469,2.516c0.24,2.336-0.399,5.132-0.629,8.188
			c-0.24,3.035-0.23,6.28,0.16,9.445c0.169,1.458,0.429,2.936,0.629,4.423c0.339,2.676,0.709,5.402,0.469,8.188
			c-0.16,1.897-0.2,5.002-0.469,7.409c-0.22,1.897-1.158,3.734-0.789,6.45c0.09,0.669,0.489,1.228,0.629,1.897
			c0.609,2.916,0.01,5.891,0,9.136c-0.01,1.967,0,3.994,0,5.971c-0.01,4.463,0.609,8.837,0.16,12.771
			c-0.11,0.979-0.689,1.867-0.789,2.836c-0.1,0.898,0.189,1.937,0.16,2.995c-0.07,2.146-0.3,4.553,0,6.6
			c0.12,0.879,0.529,1.647,0.629,2.526c0.14,1.338-0.16,2.726-0.16,4.094c0,0.829,0.16,1.588,0.16,2.366
			c-0.02,1.997-0.749,3.904-0.789,5.821c-0.03,1.028,0.259,2.137,0.31,3.165c0.05,0.929-0.2,1.777-0.15,2.666
			c0.03,0.739,0.489,1.468,0.31,2.217c-0.479-0.05-0.938,0.449-1.099,0.459c-1.188,0.12-1.937-1.737-2.835-2.825
			c-1.378-1.678-3.145-3.515-4.882-5.053c-0.56-0.489-1.338-0.849-1.897-1.418c-0.719-0.719-1.178-1.757-1.887-2.506
			c-0.959-1.019-2.217-1.647-2.996-2.526c-1.128-1.298-1.917-2.936-2.985-4.243c-2.027-2.517-4.753-4.713-7.089-7.089
			c-4.553-4.653-9.635-9.366-14.019-14.349c-0.569-0.629-1.228-1.208-1.737-1.877c-0.499-0.669-0.869-1.428-1.418-2.047
			c-1.028-1.198-2.376-2.187-3.464-3.475c-1.048-1.238-1.917-2.776-2.996-3.944c-0.929-0.989-1.977-1.797-2.835-2.826
			c-0.399-0.489-0.859-1.079-1.258-1.568c-0.429-0.529-0.849-1.188-1.258-1.587c-0.979-0.918-2.656-1.558-3.465-2.356
			c-0.839-0.839-1.398-1.947-2.207-2.846c-1.558-1.728-3.265-3.395-4.723-5.342c-1.797-2.396-3.465-4.483-5.832-6.63
			c-0.669-0.599-1.458-1.068-2.047-1.728c-0.599-0.669-0.968-1.448-1.577-2.047c-0.579-0.559-1.328-0.858-1.887-1.408
			c-1.128-1.138-1.817-2.606-3.305-3.325c-2.196,1.598-1.417,5.531-1.417,8.996C110.405,367.893,110.026,371.507,110.245,374.832z"
			/>
	</g>
	<g>
	</g>
</g>
<path fill="#7C7B65" d="M554.82,434.31c0.104-0.348,0.178-0.709,0.178-1.091c0-2.105-1.707-3.812-3.812-3.812
	c-1.746,0-3.203,1.182-3.654,2.784l-0.152,0.42C518.531,541.912,419.12,622.076,300.753,622.076
	c-107.043,0-198.674-65.916-236.563-159.364l-0.009,0.004c-0.583-1.36-1.932-2.314-3.505-2.314c-2.105,0-3.812,1.707-3.812,3.812
	c0,0.506,0.104,0.987,0.282,1.429l-0.004,0.002c39.038,96.212,133.39,164.072,243.612,164.072
	c121.847,0,224.161-82.351,253.931-194.835L554.82,434.31z"/>
<g id="XMLID_3_">
	<g>
		<path fill="#C5A653" d="M516.996,306.858c-1.401,0.411-3.052-0.113-4.268-0.636c-1.208-0.516-4.372-2.561-4.268-4.106
			c0.137-1.973,3.647-1.385,6.007-1.264C515.434,302.736,516.4,304.612,516.996,306.858z"/>
		<path fill="#C5A653" d="M508.937,355.835c0.95,2.778,1.739,5.532,2.528,8.06c-0.967,0.008-1.651-1.022-2.206-1.739
			c-1.739-2.206-3.237-4.976-4.743-7.737c-3.856-7.085-7.149-15.346-9.323-24.179c-1.144-4.646-2.335-9.46-2.689-14.058
			c-0.966-12.617,3.181-21.868,7.746-29.71c1.151-1.973,2.229-3.873,3.631-5.685c1.071-0.032,1.683,2.037,2.375,3.317
			c1.224,2.303,2.215,2.81,1.417,5.217c-0.854,2.584-1.167,7.19-0.628,10.104c0.813,4.445,3.156,9.259,5.531,12.641
			c1.272,1.82,2.625,3.462,3.632,5.378c1.038,1.98,2.028,4.179,2.528,6.474c1.296,6.039,0.555,13.092-1.426,18.808
			c-0.797,1.305-0.636,3.575-2.206,4.106c-0.435-5.371-2.882-9.952-4.589-15.644c-1.788-5.991-2.674-10.958-5.846-15.008
			c-0.901-1.159-1.723-2.858-3.945-2.214c-1.062,0.306-1.98,2.528-2.053,4.106c-0.081,1.675,0.427,3.97,0.789,5.846
			c0.37,1.973,0.571,3.873,1.103,5.531c0.21,0.636,0.725,1.151,0.95,1.739c0.491,1.288,0.732,2.866,1.104,4.267
			C504.451,342.293,506.698,349.266,508.937,355.835z"/>
		<path fill="#C5A653" d="M490.925,260.087c0.186,1.231-0.571,3.083-1.103,4.742c-0.371,1.143-0.725,2.287-1.111,3.317
			c-0.338,0.917-0.548,1.562-1.265,2.214c-0.619-0.523-0.313-1.659-0.475-2.528c-0.145-0.813-0.402-1.771-0.628-2.528
			c-1.893-6.385-4.839-11.997-6.481-18.647c0-0.161,0-0.314,0-0.475c0.161,0,0.322,0,0.475,0c2.593,3.583,6.546,7.898,9.485,12.005
			C490.313,258.887,490.868,259.7,490.925,260.087z"/>
		<path fill="#C5A653" d="M498.51,345.884c0.016,1.9-1.305,3.269-2.367,4.582c-2.359,2.915-4.719,5.201-7.907,7.432
			c-0.845,0.587-1.964,1.618-3.156,1.578c0.032-1.674,0.854-3.301,1.578-4.742c1.377-2.713,3.342-5.757,5.692-7.584
			c1.265-0.982,2.939-1.474,4.582-2.053C497.455,344.91,498.131,345.393,498.51,345.884z"/>
		<path fill="#C5A653" d="M488.711,342.406c1.973-0.821,6.336-2.085,7.745,0.475c-2.222,1.844-7.278,2.826-11.537,2.053
			C485.232,343.847,487.366,342.969,488.711,342.406z"/>
		<path fill="#C5A653" d="M482.712,284.732c0.307,0.894,1.071,1.562,0.789,2.528c-1.529-0.692-2.527-2.254-3.478-3.631
			c-4.702-6.812-8.35-14.976-11.377-23.704c-1.055-3.02-1.997-6.087-2.843-9.477c-1.449-5.797-3.107-13.229-1.899-20.54
			c0.056-0.209,0.281-0.25,0.313-0.475c2.866,2.399,5.371,5.161,7.907,7.898c-0.395,1.28-1.401,1.578-1.587,3.003
			c-0.273,2.19,0.33,4.517,0.798,6.795c0.435,2.134,0.909,4.267,1.417,6.159c2.423,8.978,5.258,17.375,8.06,25.757
			c0.322,0.95,0.772,1.796,1.103,2.689C482.286,282.711,482.391,283.814,482.712,284.732z"/>
		<path fill="#C5A653" d="M482.552,528.227c-0.25,0.766-0.999,1.394-1.578,2.054c-0.58,0.652-1.151,1.465-1.9,1.739
			c-1.022,0.37-3.414,0.482-4.734,0.475c-2.407-0.024-7.955-1.151-7.746-3.317c0.097-1.006,2.086-1.562,3.156-1.739
			C473.735,526.777,479.548,527.39,482.552,528.227z"/>
		<path fill="#C5A653" d="M476.07,279.676c1.014,0.451,0.732,2.512,0.636,3.325c-0.233,1.948-1.216,4.436-1.9,6.159
			c-0.757,1.917-1.506,4.139-3.003,4.896c-0.652-0.547-0.443-1.514-0.467-2.367c-0.138-4.774,1.224-10.66,3.945-12.013
			C475.466,279.587,476.046,279.515,476.07,279.676z"/>
		<path fill="#C5A653" d="M471.649,535.497c0.91,0.733,2.464,1.756,2.367,2.528c-0.201,1.675-2.874,0.354-3.631,0
			c-1.329-0.628-2.762-1.336-3.479-2.053c-0.725-0.725-1.675-2.134-1.425-3.325c-0.024-0.178,0.04-0.282,0.161-0.314
			c0.128-0.032,0.16-0.161,0.313-0.152C468.244,532.64,469.87,534.064,471.649,535.497z"/>
		<path fill="#C5A653" d="M452.052,218.686c-0.281,1.006-1.449,1.353-2.206,1.9c-6.271,4.477-13.961,8.011-24.807,8.06
			c-1.345,0-2.777-0.089-4.114-0.161c-10.612-0.588-21.393-2.923-29.541-6.481c-0.556-0.242-1.184-0.491-1.739-0.789
			c-0.467-0.242-1.385-0.418-1.425-1.103c0.298-0.733,1.151-0.193,1.578-0.161c4.227,0.338,8.382,1.385,12.641,1.9
			c0.902,0.104,1.796,0.032,2.689,0.153c2.81,0.402,6.73,0.91,10.112,1.111c2.682,0.153,5.347,0.628,7.898,0.628
			c2.247,0,6.595-0.298,6.635-2.528c0.024-0.926-1.441-1.828-2.528-2.367c-0.861-0.435-2.447-1.159-3.631-1.425
			c-0.677-0.145-1.506-0.032-2.214-0.153c-6.248-1.119-13.133-2.432-20.064-2.689c-0.193-0.467,0.555-0.773,0.789-0.95
			c0.395-0.29,0.861-0.556,1.264-0.789c1.643-0.942,3.559-1.82,5.692-2.528c3.897-1.288,10.121-2.158,15.008-0.95
			c1.225,0.306,2.504,0.934,3.632,1.425c2.303,1.006,4.484,2.134,7.271,2.842c2.496,0.636,5.596,1.345,9.323,0.95
			c0.637-0.064,1.449-0.54,2.054-0.475c1.062,0.113,2.142,1.514,3.003,2.214C450.515,217.245,451.553,217.711,452.052,218.686z"/>
		<path fill="#C5A653" d="M434.202,205.103c-0.757,1.465-2.826,3.938-4.742,4.42c-0.692,0.177-1.61,0.193-2.367-0.161
			c-0.049-1.425,1.119-2.238,1.892-2.995c0.902-0.894,1.828-1.747,2.843-2.528C433.019,203.863,433.622,204.467,434.202,205.103z"/>
		<path fill="#C5A653" d="M425.981,544.024c1.047,2.447,0.998,9.533-3.003,5.845c-1.023-0.941-2.312-2.866-3.317-4.734
			c-1.57-2.931-2.198-4.782-2.682-8.06c0.057-0.209,0.273-0.249,0.314-0.475c1.715,0.612,3.671,1.731,5.217,3.003
			C423.84,540.699,425.257,542.317,425.981,544.024z"/>
		<path fill="#C5A653" d="M386.166,567.728c-20.386-1.569-42.407-0.402-64.308-0.789c-1.03-1.231-1.803-2.729-2.375-4.428
			c5.66,0.459,13.792,0.547,19.437-0.314c2.786-0.419,5.636-1.191,8.06-2.053c2.617-0.926,4.943-2.19,7.585-2.528
			c7.134-0.902,12.117,1.69,17.858,1.739c8.43,0.064,14.05-5.009,17.697-9.952c2.504-3.405,4.179-6.658,5.523-11.062
			c0.225-0.725,0.418-1.417,0.636-2.214c0.757-2.786,2.335-5.105,4.106-7.271c3.244-3.962,6.98-7.399,11.062-10.58
			c0.387-0.306,0.797-0.636,1.264-0.95c0.29-0.201,0.813-0.725,1.265-0.475c-0.04,2.021-1.305,3.929-2.214,5.845
			c-3.454,7.312-7.271,14.558-11.377,21.65c-2.005,3.463-3.72,6.651-6.16,10.267c-0.861,1.279-3.341,3.775-3.003,5.217
			c0.443,1.908,7.866,1.417,10.273,1.417c4.815,0,7.972,0.242,11.216-0.313c6.096-1.039,10.073-4.92,13.116-9.163
			c1.667-2.327,2.722-4.598,3.792-7.271c1.039-2.601,1.595-5.427,2.682-8.373c2.094-5.645,5.298-9.493,9.484-12.794
			c4.179-3.31,8.27-5.749,14.533-7.585c0.097,0.773-0.7,1.264-1.103,1.731c-3.197,3.735-5.838,8.671-8.535,13.115
			c-1.449,2.392-3.293,4.96-4.742,7.585c-1.449,2.657-3.116,5.926-1.893,9.484c2.729,0.982,4.453-0.812,6.007-2.375
			c4.477-4.492,7.777-9.96,11.53-15.322c1.819-2.601,3.695-5.33,5.531-8.06c1.779-2.648,3.445-5.45,5.217-8.221
			c1.265-1.98,2.206-4.187,3.471-5.523c0.129-0.128,0.217-0.458,0.475-0.475c0.129,0.024,0.161,0.153,0.322,0.153
			c-1.61,9.018-5.652,16.594-9.638,23.703c-3.462,6.151-7.335,12.021-11.852,17.223c-5.766,6.635-12.649,12.085-21.965,15.483
			c-3.961,1.449-8.494,2.601-13.277,3.316c-8.027,1.225-17.028,1.587-25.909,0.798C388.694,568.251,387.446,567.824,386.166,567.728
			z"/>
		<path fill="#C5A653" d="M398.646,228.484c0.676-0.717,1.94-1.659,3.164-1.264c-0.04,3.165-2.109,6.063-3.953,8.221
			c-0.58,0.676-1.265,1.699-2.214,1.578C395.877,234.137,396.826,230.401,398.646,228.484z"/>
		<path fill="#C5A653" d="M394.701,523.96c1.103,1.675,2.593,3.744,1.417,6.481c-1.264,0.185-2.23-1.111-3.003-2.054
			c-0.773-0.958-1.562-2.125-2.206-3.164c-1.369-2.198-2.722-4.983-3.317-7.424c-0.049-0.257,0.145-0.273,0.152-0.475
			c0.105,0,0.21,0,0.314,0C390.418,518.888,392.962,521.343,394.701,523.96z"/>
		<path fill="#C5A653" d="M395.015,213.315c0.21,0.587,0.669,1.272,0.476,1.9c-0.926,0.129-1.675-0.837-2.528-1.586
			c-1.586-1.377-2.947-2.722-4.268-4.582c-0.652-0.918-1.409-1.844-1.739-2.681c-0.531-1.376-0.926-3.148,0-4.267
			c1.329-0.242,2.464,1.385,3.317,2.528C392.302,207.341,393.759,209.789,395.015,213.315z"/>
		<path fill="#C5A653" d="M393.115,511.158c0.708,0.362,1.892,0.725,1.899,1.738c-1.473-0.177-3.019-0.386-4.581-0.628
			c-4.799-0.748-9.469-1.473-14.541-2.053c-3.107-0.362-6.562-0.942-9.951-1.111c-3.148-0.153-7.585-0.708-10.427,0.161
			c-0.959,0.29-2.029,1.071-2.054,2.053c-0.064,2.344,5.516,3.744,7.737,4.106c0.733,0.121,1.61,0.064,2.376,0.161
			c5.402,0.7,11.932,2.287,17.85,2.528c-0.185,1.199-1.626,1.425-2.528,1.893c-0.941,0.499-1.908,1.022-2.842,1.425
			c-5.169,2.447-13.583,3.1-19.275,0.95c-0.588-0.226-1.144-0.516-1.739-0.789c-1.667-0.773-3.397-1.595-5.217-2.215
			c-2.247-0.772-5.588-1.602-8.688-1.578c-8.405,0.049-11.779,4.984-15.805,9.952c-0.829,1.03-1.401,1.731-2.528,3.164
			c-0.636,0.806-2.278,2.633-2.053,3.632c0.354,1.554,3.784,1.159,5.692,1.425c5.644,0.765,11.489,2.142,17.222,3.317
			c2.858,0.579,5.669,1.216,8.374,1.892c2.786,0.701,5.571,1.071,7.898,2.375c-0.539,0.838-1.739,0.927-2.682,1.104
			c-2.303,0.427-4.782,0.781-7.584,1.104c-3.293,0.386-6.57,0.185-9.324-0.629c-1.98-0.587-3.695-1.73-5.692-2.375
			c-4.074-1.312-11.119-2.102-15.958-0.628c-6.474,1.973-8.446,7.608-11.69,12.794c-1.989,3.181-4.525,5.089-8.221,7.271
			c-6.747,3.994-11.337,9.243-15.322,15.483c-0.708-0.04-0.958-0.797-1.264-1.417c-0.257-0.516-0.66-1.394-0.636-1.9
			c0.072-1.079,2.665-3.559,3.792-4.896c1.393-1.65,2.681-3.519,3.792-4.896c5.427-6.698,10.33-12.544,15.644-19.122
			c2.592-3.213,5.088-6.594,7.431-9.952c2.44-3.518,4.372-7.109,6.949-10.435c1.224-1.578,2.713-3.067,4.105-4.581
			c5.354-5.797,12.19-11.062,20.548-14.219c3.156-1.192,6.224-1.788,10.427-2.054c12.214-0.772,24.195,1.603,33.181,4.742
			c0.556,0.193,1.03,0.258,1.578,0.476C390.208,509.886,391.746,510.465,393.115,511.158z"/>
		<path fill="#C5A653" d="M391.698,579.419c1.569,0.427,3.365,2.189,5.056,3.953c1.434,1.489,2.907,3.47,3.471,5.057
			c0.378,1.046,0.7,2.472,0,3.478c-1.643,0.789-2.705-0.974-3.632-2.214c-1.393-1.876-2.648-4.025-3.631-6.167
			c-0.612-1.321-0.966-2.496-1.425-3.632C391.625,579.765,391.706,579.636,391.698,579.419z"/>
		<path fill="#C5A653" d="M393.115,182.663c-0.54,1.32-1.377,2.343-2.054,3.479c-1.65,2.802-3.132,5.684-4.106,9.315
			c-0.812,3.027-1.932,5.346-3.792,7.746c-3.188,4.106-7.271,7.456-11.377,10.749c-0.829,0.661-1.521,1.675-2.689,1.731
			c0.057-1.86,1.007-3.454,1.739-5.057c4.799-10.443,10.701-20.282,16.434-30.177C389.299,180.521,391.432,181.729,393.115,182.663z
			"/>
		<path fill="#C5A653" d="M387.27,495.521c0.25,1.329-0.29,2.834-0.628,3.945c-0.773,2.553-2.166,6.111-5.37,5.846
			c-0.274-2.134,0.966-3.905,1.892-5.37c0.975-1.538,2.142-2.907,3.164-4.268c0.218,0.016,0.443,0.024,0.468-0.153
			C386.955,495.521,387.116,495.521,387.27,495.521z"/>
		<path fill="#C5A653" d="M365.305,191.665c0.443,1.329,1.039,2.891,0.476,4.268c-4.316-1.474-10.129-6.224-9.324-12.319
			c0.161-1.184,0.685-2.247,2.215-1.9c1.844,0.419,4.041,4.493,4.903,6.167C364.186,189.072,364.886,190.4,365.305,191.665z"/>
		<path fill="#C5A653" d="M365.78,172.864c-0.83,0.797-1.82,1.305-2.682,1.9c-5.145,3.51-8.655,9.332-10.749,16.111
			c-0.861,2.802-1.385,5.419-2.527,7.907c-0.314,0.685-0.572,1.401-0.95,2.053c-0.314,0.556-0.886,1.031-1.257,1.578
			c-3.969,5.877-9.549,10-16.594,12.955c-1.337,0.563-2.81,1.151-4.268,1.264c-0.226-0.765,0.749-1.03,1.104-1.417
			c1.264-1.385,2.343-3.253,3.479-5.056c1.376-2.19,2.802-4.533,4.267-6.957c1.394-2.303,2.915-4.63,4.429-6.949
			c1.006-1.562,2.077-3.623,2.842-5.692c0.508-1.385,1.449-5.217-0.475-6.006c-3.881-0.008-5.338,2.432-7.424,4.903
			c-6.441,7.593-11.852,16.224-17.23,24.646c-2.206,3.47-4.033,7.149-6.634,10.113c0,0.241-0.427,0.523-0.314,0
			c0.298-1.216,0.709-2.665,0.476-3.945c3.889-10.846,8.937-20.918,15.482-29.863c5.692-7.778,11.707-14.565,20.54-19.123
			c1.207-0.62,2.52-1.095,3.792-1.739c0.201-0.105,0.258-0.322,0.636-0.314c2.142,0.032,4.67,1.144,7.109,1.739
			C361.344,171.576,363.808,171.946,365.78,172.864z"/>
		<path fill="#C5A653" d="M372.575,587.317c-2.189,6.449-5.226,12.053-8.212,17.697c-3.044,0.91-6.007,1.892-9.485,2.375
			c-0.201-1.256,0.588-1.521,0.476-2.689c3.985-7.496,10.249-12.713,16.747-17.697C372.31,587.06,372.35,587.285,372.575,587.317z"
			/>
		<path fill="#C5A653" d="M351.561,524.121c0.717-0.556,3.213-2.005,4.429-0.637c-0.652,1.957-2.318,3.245-3.792,4.429
			c-1.417,1.127-3.084,2.528-5.218,2.842c0.024-1.078,1.022-2.439,1.893-3.631C349.669,526.029,350.675,524.805,351.561,524.121z"/>
		<path fill="#C5A653" d="M316.803,197.357c0.45,0.532,1.062,1.748,0.789,2.842c-1.82,0.314-3.655-1.119-5.057-2.214
			c-1.699-1.312-3.43-2.544-4.268-4.42c-0.185-0.024-0.137-0.29-0.161-0.475C311.448,193.605,315.007,195.24,316.803,197.357z"/>
		<path fill="#C5A653" d="M311.271,200.199c2.206,0.322,4.444,1.401,5.37,3.165c-0.958,1.554-3.27,1.739-6.007,1.892
			c-4.952,0.282-10.539-0.475-13.744-1.892c0.209-1.039,1.643-1.079,2.689-1.425c0.926-0.306,1.876-0.87,2.842-1.103
			c0.556-0.137,1.312-0.032,1.892-0.161C306.013,200.312,309.089,199.885,311.271,200.199z"/>
		<path fill="#C5A653" d="M306.843,534.233c-0.612,0.878-1.965,1.022-3.156,1.417c-2.641,0.87-6.795,2.223-10.588,1.578
			c-1.691-0.281-5.918-1.481-5.845-3.156c0.072-1.667,4.388-1.965,5.684-2.053c3.374-0.233,7.279,0.201,9.799,0.628
			C304.105,532.881,305.965,533.396,306.843,534.233z"/>
		<path fill="#C5A653" d="M294.049,541.971c0.636,0.637,1.626,1.111,1.417,1.9c-0.459,0.563-1.361,0.186-2.053,0
			c-0.596-0.169-1.256-0.749-1.892-0.636c-2.214-1.369-5.282-2.722-5.37-5.685c-0.032-0.186,0.032-0.282,0.153-0.322
			C289.242,537.035,292.148,540.079,294.049,541.971z"/>
		<path fill="#C5A653" d="M288.356,613.235c-7.045-0.347-14.34,0.66-20.54-0.95c0.346-1.079,1.216-2.045,1.9-3.003
			c0.668-0.942,1.377-1.868,2.053-2.843c1.312-1.908,2.432-4.042,3.792-6.006c2.584-3.752,5.837-7.15,9.163-10.427
			c5.499-5.419,12.448-10.669,21.329-12.955c1.264-0.33,2.584-0.781,3.792-0.95c4.815-0.668,10.201-0.362,15.33,0
			c2.472,0.177,4.944,0.717,7.109,1.111c7.126,1.28,14.638,2.938,20.226,5.998c0.861,0.072,1.707,0.869,1.578,1.425
			c-0.934,0.314-1.747-0.33-2.681-0.475c-0.757-0.121-1.555-0.024-2.375-0.161c-5.846-0.95-13.028-2.109-19.751-2.682
			c-3.067-0.266-6.32-0.522-9.799-0.636c-2.608-0.08-6.884-0.08-6.948,2.375c-0.024,1.007,1.434,2.174,2.528,2.682
			c2.979,1.4,8.148,1.658,11.852,2.214c4.774,0.717,8.374,1.828,13.744,1.9c-0.314,1.055-1.61,1.393-2.528,1.892
			c-1.859,1.007-3.792,1.812-6.159,2.528c-4.139,1.248-10.266,1.82-15.169,0.314c-0.95-0.29-1.82-0.87-2.689-1.265
			c-1.804-0.812-3.471-1.537-5.685-2.214c-3.462-1.038-7.922-2.182-12.802-0.942c-5.926,1.498-9.557,7.23-13.116,11.691
			c-0.386,0.483-3.06,3.293-2.681,4.581c0.387,1.337,3.559,1.055,5.371,1.265c0.886,0.104,1.747,0.515,2.681,0.636
			c6.602,0.805,13.124,2.246,19.436,3.631c0.967,0.21,1.933,0.596,2.843,0.789c0.894,0.186,2.134-0.185,2.689,0.789
			c-5.371,0.387-12.553,1.28-18.487,0.789c-1.095-0.088-2.303-0.676-3.317-0.628c-0.58,0.024-1.191,0.516-1.739,0.476
			C288.904,613.952,288.904,613.323,288.356,613.235z"/>
		<path fill="#C5A653" d="M283.147,172.55c0.362,0.652,1.151,1.272,1.103,2.214c-9.855-0.87-20.966,0.121-28.438,2.842
			c-0.628,0.225-1.296,0.741-1.9,0.95c-0.387,0.129-0.902,0.032-1.264,0.153c-2.19,0.732-5.628,1.401-9.002,1.111
			c-4.976-0.427-8.937-2.142-14.227-1.739c-6.964,0.523-11.465,4.686-15.008,9.002c-2.858,3.478-5.314,7.882-6.635,12.963
			c-1.98,7.609-7.802,12.617-13.277,17.061c-1.546,1.256-2.931,2.907-4.895,3.479c1.079-4.179,3.245-7.722,5.056-11.377
			c3.535-7.125,7.335-14.09,11.53-21.015c0.829-1.369,2.005-3.277,3.164-5.056c0.516-0.797,1.176-1.546,1.739-2.375
			c0.62-0.91,0.95-1.908,1.578-2.367c0.604-0.435,1.892-0.717,3.003-1.104c4.879-1.707,10.153-3.39,15.33-4.903
			c2.149-0.628,4.444-0.966,6.32-1.739c0.169-0.064,0.322-0.129,0.467-0.153c3.39-0.499,7.319,0,11.063,0
			c10.813,0,22.077,0,33.027,0C282.688,170.852,282.752,171.85,283.147,172.55z"/>
		<path fill="#C5A653" d="M265.289,607.076c0.5,1.279,0.982,3.075,0.636,5.056c-1.208,0.049-1.86-0.467-3.164-0.322
			c-1.353-3.188-2.609-7.271-2.367-11.529c0.104,0,0.209,0,0.314,0c0.668,0.072,1.062,0.894,1.425,1.417
			c0.757,1.119,1.329,2.271,2.053,3.64C264.508,605.948,265.055,606.472,265.289,607.076z"/>
		<path fill="#C5A653" d="M263.71,586.689c0.153-0.049,0.588-0.064,0.95,0.161c-0.072,0.934-1.095,1.658-1.9,2.367
			c-1.731,1.514-3.696,3.043-6.16,4.105c-1.474,0.637-4.211,1.434-6.167,0.476c0.008-2.094,2.657-3.02,4.589-3.945
			c1.9-0.926,4.082-2.005,5.999-2.536C261.843,587.092,262.905,586.963,263.71,586.689z"/>
		<path fill="#C5A653" d="M256.126,206.52c0.282-0.016,0.33,0.193,0.628,0.161c-0.201,1.514-1.433,2.955-2.528,4.268
			c-1.047,1.256-2.158,2.625-3.47,3.156c-0.797,0.322-2.271,0.7-3.003-0.153C249.387,210.312,252.792,208.452,256.126,206.52z"/>
		<path fill="#C5A653" d="M256.126,232.277c-3.245,0.934-7.303,0.805-11.216,0.789c-3.583-0.008-7.19-0.548-10.588-0.789
			c-1.723-0.121-3.309-0.209-4.903-0.475c-6.143-1.022-12.142-2.794-17.375-5.057c-1.16-0.499-2.528-0.845-3.317-1.892
			c0.652-0.813,1.651-0.129,2.367,0c2.392,0.427,4.887,0.58,7.584,0.942c3.084,0.426,6.449,1.087,9.952,1.425
			c3.06,0.298,6.675,0.628,10.427,1.103c2.617,0.338,8.043,1.055,10.113,0c0.749-0.37,1.24-0.99,1.586-2.053
			c0.362-0.499-0.507-0.636-0.789-1.103c-0.306-0.499-0.749-0.845-1.425-1.264c-2.891-1.795-7.439-1.828-12.327-2.689
			c-1.674-0.29-3.333-0.668-4.895-0.942c-1.788-0.322-3.479-0.644-4.903-0.797c-1.683-0.169-3.165,0.362-4.42-0.314
			c0.612-0.773,1.643-1.272,2.528-1.739c1.795-0.942,3.736-1.86,6.006-2.528c2.995-0.878,7.142-1.522,10.902-1.103
			c2.053,0.233,3.438,0.37,5.209,0.95c1.949,0.628,3.68,1.771,5.532,2.528c3.575,1.458,8.937,2.963,14.227,1.892
			c5.692-1.159,8.156-4.871,11.691-9.163c0.861-1.047,1.674-1.812,2.842-3.317c0.62-0.805,2.311-2.955,2.053-3.953
			c-0.306-1.151-1.997-0.95-3.631-1.103c-3.027-0.29-6.175-0.999-9.323-1.578c-5.741-1.063-11.474-2.271-17.069-3.479
			c-1.707-0.37-3.535-0.95-5.209-1.425c-1.329-0.378-3.011-0.322-3.792-1.578c0.378-0.837,1.337-0.491,2.053-0.628
			c0.66-0.129,1.401-0.516,2.053-0.636c0.789-0.145,1.731-0.048,2.528-0.161c4.396-0.62,10.837-0.998,14.694,0.797
			c0.226,0.104,0.411,0.362,0.636,0.467c4.243,2.021,12.23,3.688,18.486,2.053c4.638-1.208,7.866-4.791,10.113-8.841
			c0.386-0.708,0.58-1.53,0.942-2.214c1.9-3.543,4.968-6.691,8.535-8.696c5.338-2.995,9.702-6.795,13.277-11.691
			c1.208,0.105,2.843-0.209,3.792,0.161c-0.321,1.675-1.835,2.706-2.85,3.945c-4.984,6.119-10.104,12.488-15.169,18.808
			c-3.929,4.912-8.035,9.96-11.691,15.322c-1.828,2.689-3.422,5.531-5.37,8.06c-2.915,3.784-6.087,7.423-9.799,10.588
			c-1.884,1.61-3.269,2.898-5.531,4.267c-3.02,1.828-6.522,3.954-10.113,5.371C259.081,231.117,257.591,231.858,256.126,232.277z"/>
		<path fill="#C5A653" d="M245.224,546.713c1.151,1.506,2.359,3.6,2.214,6.16c-0.081,1.336-0.604,2.866-1.586,3.003
			c-1.844,0.266-4.669-4.437-5.37-5.685c-1.353-2.415-2.335-5.016-2.842-8.221c-0.048-0.249,0.145-0.273,0.153-0.475
			C240.184,541.722,243.606,544.596,245.224,546.713z"/>
		<path fill="#C5A653" d="M244.113,595.224c2.303-3.735,4.549-7.447,6.643-11.377c0.04-0.177,0.314-0.112,0.314-0.321
			c0.104,0,0.209,0,0.314,0c0.684,0.192,0.354,1.167,0.314,1.586c-0.153,1.819-0.894,3.51-1.417,5.056
			c-2.158,6.345-4.573,12.384-7.899,17.698c-1.892-0.322-3.856-0.58-5.217-1.426C239.234,602.511,241.834,598.928,244.113,595.224z"
			/>
		<path fill="#C5A653" d="M220.57,599.33c2.722-2.351,6.127-4.372,9.799-6.007c1.634-0.725,3.398-1.296,4.896-2.053
			c0.137-0.032,0.153,0.064,0.161,0.161c0.104,0,0.209,0,0.314,0c-0.556,1.119-1.481,1.988-2.207,3.003
			c-2.101,2.915-3.84,6.417-6.006,9.477c-3.027-0.765-6.039-1.546-8.535-2.842C219.186,600.288,220.023,599.805,220.57,599.33z"/>
		<path fill="#C5A653" d="M188.501,571.834c-6.417-0.032-14.025-0.153-21.175-0.153c-2.407,0-5.104,0.395-6.957,0
			c-1.103-0.241-1.763-1.247-2.681-1.899c-0.934-0.66-2.085-0.926-2.689-1.893c0.467-0.725,1.57-0.539,2.214-0.636
			c2.512-0.379,4.767-0.829,7.109-1.417c1.538-0.395,2.818-0.886,4.268-1.426c3.245-1.207,7.584-2.552,12.327-2.053
			c5.532,0.571,11.409,2.77,17.689,1.104c4.871-1.289,9.243-5.29,12.013-9.002c2.295-3.084,4.284-6.385,5.532-10.273
			c0.418-1.321,0.652-2.665,1.103-4.106c1.328-4.235,4.694-7.536,7.584-10.435c1.554-1.546,3.148-2.915,4.742-4.26
			c1.594-1.353,3.068-3.092,5.217-3.792c-0.306,2.085-1.32,3.961-2.214,5.845c-2.617,5.508-5.491,10.902-8.535,16.434
			c-2.713,4.928-6.006,10.645-9.324,15.645c-0.877,1.32-3.165,4.018-2.681,5.209c0.692,1.739,6.449,1.425,9.163,1.425
			c9.815,0,15.418-0.12,20.54-4.267c4.042-3.27,6.828-7.617,8.849-12.955c0.966-2.561,1.498-5.402,2.528-8.221
			c2.906-7.923,8.728-13.181,15.797-16.908c2.271-1.191,4.75-2.319,7.746-2.995c0.66,0.491-0.531,1.256-0.95,1.73
			c-0.942,1.079-1.803,2.303-2.681,3.64c-2.053,3.116-3.953,6.635-6.006,9.952c-1.498,2.407-3.35,4.887-4.896,7.898
			c-0.966,1.884-3.72,8.293-0.322,8.849c1.997,0.33,4.203-1.844,5.531-3.317c4.139-4.581,7.77-9.799,11.224-15.008
			c4.227-6.386,7.963-12.303,12.004-18.801c0.645-1.039,1.329-2.206,2.053-3.164c0.105,0,0.209,0,0.314,0
			c0.089,4.171-1.683,7.955-3.156,11.538c-4.332,10.547-10.225,19.589-16.908,27.963c-3.486,4.38-6.94,7.882-11.538,11.062
			c-1.795,1.248-3.792,2.464-5.846,3.479c-4.428,2.189-9.718,3.881-15.483,5.056c-6.884,1.401-15.813,2.399-24.968,1.893
			c-3.945-0.218-8.309-1.191-12.955-1.264C197.64,572.245,193.059,571.858,188.501,571.834z"/>
		<path fill="#C5A653" d="M222.31,231.802c0.612,2.166-0.813,4.404-1.892,6.006c-1.159,1.715-2.689,3.341-3.953,4.267
			C216.673,237.534,218.002,232.768,222.31,231.802z"/>
		<path fill="#C5A653" d="M216.625,530.441c0.242,1.296,1.2,3.325,0.314,4.734c-1.151,0.338-2.271-0.862-3.003-1.739
			c-1.755-2.077-3.325-4.903-4.582-7.737c-0.443-0.999-0.829-1.659-0.95-3.004c-0.282-0.112-0.024-0.29,0-0.475
			c0.104,0,0.209,0,0.322,0c1.619,0.894,3.1,2.254,4.42,3.639C214.467,527.245,215.49,528.863,216.625,530.441z"/>
		<path fill="#C5A653" d="M212.986,212.526c1.514,2.472,3.011,4.887,3.003,7.423c-1.015-0.129-1.812-0.966-2.528-1.578
			c-2.069-1.763-3.945-4.026-5.531-6.481c0.024-0.813-0.306-1.264-0.628-1.731c-0.041-1.224-0.411-2.568,0.314-3.325
			c1.457-0.129,2.23,1.328,3.164,2.528C211.649,210.497,212.422,211.6,212.986,212.526z"/>
		<path fill="#C5A653" d="M214.725,516.536c0.378,0.218,1.256,0.258,1.111,0.942c-4.009,0.016-8.486-1.144-12.802-1.731
			c-2.609-0.362-5.29-0.507-8.06-0.797c-3.35-0.347-7.335-1.039-11.063-1.265c-3.559-0.209-8.188-0.725-9.952,2.376
			c2.078,4.122,8.326,3.945,13.591,4.742c1.731,0.258,3.494,0.797,5.209,1.103c0.926,0.161,1.908,0.178,2.851,0.314
			c1.835,0.266,4.525,0.588,6.787,0.636c-0.346,0.95-1.618,1.394-2.52,1.893c-1.771,0.966-3.736,1.867-6.006,2.528
			c-2.399,0.7-5.362,1.481-8.696,1.425c-4.356-0.072-8.003-1.562-11.53-3.164c-4.292-1.94-9.678-3.712-15.644-2.528
			c-5.692,1.135-8.398,5.152-11.852,9.323c-0.845,1.031-1.32,1.724-2.528,3.317c-0.676,0.894-2.392,2.544-2.053,3.792
			c0.33,1.216,1.957,0.942,3.631,1.111c2.818,0.274,5.87,0.886,8.695,1.417c6.578,1.248,13.277,2.561,19.75,4.106
			c1.256,0.306,2.568,0.588,3.792,0.95c1.079,0.322,2.456,0.692,3.156,1.578c-0.387,0.797-1.441,0.491-2.206,0.636
			c-0.765,0.146-1.458,0.508-2.214,0.628c-0.773,0.129-1.546,0.041-2.375,0.161c-3.591,0.548-9.734,1.079-13.269-0.161
			c-5.419-3.454-17.182-5.555-23.857-1.73c-1.151,0.652-1.892,1.481-3.003,2.053c-1.764-1.296-3.181-2.938-4.743-4.428
			c2.729-3.479,5.089-7.456,7.746-11.377c6.208-9.171,14.549-17.496,25.435-22.279c0.886-0.386,1.659-0.812,2.528-1.103
			c1.345-0.451,2.996-1.119,4.429-1.425c0.7-0.146,1.473-0.024,2.206-0.153c0.604-0.113,1.151-0.419,1.739-0.476
			c3.035-0.313,6.159,0,9.17,0c2.858,0,5.749,0.322,8.374,0.629c2.351,0.273,4.807,0.797,7.11,1.264
			c4.622,0.934,8.76,2.263,12.793,3.792C211.963,515.208,213.38,515.747,214.725,516.536z"/>
		<path fill="#C5A653" d="M212.672,584.161c2.295,1.546,6.425,5.024,7.898,8.213c0.58,1.248,1.385,3.534,0.161,5.064
			c-2.254-0.677-3.583-3.108-5.056-5.532c-0.523-0.861-1.296-2.069-1.9-3.316C213.066,587.1,212.084,585.216,212.672,584.161z"/>
		<path fill="#C5A653" d="M207.93,500.256c0.064,4.171-1.731,9.26-5.685,10.113c-0.805-2.118,0.66-4.235,1.892-6.16
			c0.435-0.676,0.934-1.296,1.425-1.899c0.652-0.789,1.288-1.24,1.739-2.054C207.511,500.256,207.72,500.256,207.93,500.256z"/>
		<path fill="#C5A653" d="M186.287,197.043c-0.129,1.369,0.861,2.367,0.314,3.631c-3.615-1.071-6.079-3.293-8.06-6.006
			c1.006-1.522,3.148-1.908,4.581-3.003C185.111,192.526,185.095,195.385,186.287,197.043z"/>
		<path fill="#C5A653" d="M176.488,527.913c0.483,1.144-0.628,2.005-1.264,2.681c-0.652,0.701-1.393,1.522-2.053,2.054
			c-1.457,1.191-3.333,2.52-5.37,2.85c-0.242-0.676,0.386-1.4,0.789-2.061c0.757-1.24,1.465-2.238,2.528-3.317
			C172.326,528.896,173.912,527.357,176.488,527.913z"/>
		<path fill="#C5A653" d="M171.593,198.146c0.209,0,0.419,0,0.628,0c-0.024,1.659-0.668,3.156-1.264,4.582
			c-0.491,1.184-1.127,2.432-1.892,3.478c-1.748,2.383-3.511,4.912-5.846,6.949c-3.631,3.164-8.333,5.902-13.43,7.746
			c-0.717,0.258-1.594,0.749-2.375,0.314c2.577-2.882,4.469-5.886,6.481-9.324c0.62-1.055,1.272-2.359,2.053-3.156
			c0.958-0.982,2.52-1.795,3.792-2.689C163.501,203.42,167.833,200.69,171.593,198.146z"/>
	</g>
	<g>
	</g>
</g>
<g>
	<polygon fill="#7C7B65" points="252.875,269.76 260.734,269.76 260.734,293.467 263.414,293.467 263.414,269.76 271.274,269.76 
		271.274,267.188 252.875,267.188 	"/>
	<polygon fill="#7C7B65" points="293.875,278.21 280.494,278.21 280.494,267.188 277.868,267.188 277.868,293.467 280.494,293.467 
		280.494,280.783 293.875,280.783 293.875,293.467 296.5,293.467 296.5,267.188 293.875,267.188 	"/>
	<polygon fill="#7C7B65" points="321.31,269.76 321.31,267.188 306.25,267.188 306.25,293.467 321.201,293.467 321.201,290.895 
		308.876,290.895 308.876,280.568 321.201,280.568 321.201,277.996 308.876,277.996 308.876,269.76 	"/>
</g>
<g>
	<polygon fill="#7C7B65" points="93.76,486.82 110.995,486.82 110.995,483.855 96.787,483.855 96.787,471.953 110.995,471.953 
		110.995,468.987 96.787,468.987 96.787,459.495 111.119,459.495 111.119,456.529 93.76,456.529 	"/>
	<polygon fill="#7C7B65" points="248.923,459.495 257.677,459.495 257.677,486.82 260.766,486.82 260.766,459.495 269.521,459.495 
		269.521,456.529 248.923,456.529 	"/>
	<polygon fill="#7C7B65" points="326.885,486.82 344.121,486.82 344.121,483.855 329.912,483.855 329.912,471.953 344.121,471.953 
		344.121,468.987 329.912,468.987 329.912,459.495 344.244,459.495 344.244,456.529 326.885,456.529 	"/>
	<polygon fill="#7C7B65" points="500.827,456.484 491.847,471.741 482.732,456.499 479.25,456.499 490.395,475.064 490.395,486.82 
		493.381,486.82 493.381,475.064 504.328,456.484 	"/>
	<path fill="#7C7B65" d="M180.53,456.529l-14.312,30.291h3.377l3.229-6.819h16.091l3.212,6.819h3.27l-14.126-30.291H180.53z
		 M174.146,477.209l6.744-14.244l6.71,14.244H174.146z"/>
	<path fill="#7C7B65" d="M419.21,473.366c1.441-0.639,2.55-1.583,3.325-2.835c0.776-1.249,1.164-3.257,1.164-4.906
		c0-1.979-0.562-4.68-1.688-6.033c-1.126-1.354-2.588-2.238-4.386-2.649c-1.195-0.274-3.475-0.413-6.837-0.413h-6.034v30.291h3.027
		v-12.475h1.711h3.746c0.376-0.002,0.715-0.025,1.066-0.041l7.162,12.516h3.502l-7.4-12.934
		C418.168,473.744,418.73,473.579,419.21,473.366z M413,471.422l-5.219-0.042v-11.885h5.342c2.076,0,3.562,0.179,4.456,0.535
		c0.894,0.357,1.614,0.951,2.165,1.781c0.551,0.831,0.825,2.788,0.825,3.804c0,1.044-0.272,2.544-0.815,3.388
		s-1.299,1.459-2.269,1.843C416.516,471.23,415.021,471.422,413,471.422z"/>
</g>
<g>
	<g id="XMLID_4_">
		<g>
			<path fill="#C5A653" d="M88.909,321.15c-1.346-1.135-4.566-2.204-6.651-1.108c-0.633,0.158-0.099,1.484-0.95,1.425
				c-0.224-1.088-0.62-2.019-0.475-3.484c0.614-0.871,1.703-1.253,2.534-1.9c4.771-0.831,8.73-2.857,10.076-7.1
				c0.106-2.355-0.112-3.075-0.515-5.008c-0.145-0.726-0.528-1.814-0.607-2.481c-0.073-0.547-0.079-1.808-0.185-2.303
				c-0.409-1.94-1.584-3.57-2.91-5.437c-2.686-3.794-4.988-6.387-7.898-9.977c-1.966-2.435-4.236-4.777-5.431-7.661
				c-1.57-5.187-2.521-12.484-2.738-17.446c-0.237-5.298-0.891-8.149-1.511-8.149c-0.825-0.073-3.042,0.554-3.748,0.158
				c2.243,0.092,0.957-0.792,1.009-0.798c0.759-0.119,2.316-1.749,2.897-2.369c6.387-6.836,12.702-14.827,19.003-21.854
				c1.003-0.006,2.072,0.066,2.851-0.158c1.966,2.158,3.444,3.847,5.226,5.701c-0.653,2.039-3.827,2.237-3.801,4.275
				c0.02,1.491,0.7,1.142,0.95,3.009c0.706,1.062,1.88,3.326,3.167,4.751c1.029,1.135,2.059,2.257,2.85,2.534
				c0.337,0.119,0.191,1.729,0.159,2.217c-0.086,1.498-0.139,3.028-0.482,5.457c-0.006,0.073-0.35,2.745-0.363,2.818
				c-0.614,4.368-0.468,3.345-0.712,6.512c-0.139,1.854-0.185,3.688-0.284,5.648c-0.448,8.433-0.435,16.892,1.128,24.651
				c0.35,1.722,1.049,3.662,1.676,4.652c0.185,0.297,0.508,1.228,0.686,1.597c0.152,0.317,0.31,1.201,0.409,2.145
				c0.092,0.917-0.191,1.683-0.205,2.719c-0.007,0.712,0.257,1.993,2.197,2.065c1.643,0.06,4.335,0.027,6.526,0.172
				c6.855,0.462,12.873,2.626,19.036,3.801c0.356,0.231,0.732,0.429,1.108,0.633c2.362-0.145,3.115,1.32,5.384,1.267
				c0.752,0.673,1.788,1.062,3.167,1.109c2.837,1.227,5.246,2.883,6.81,5.384c0.29-0.185,0.125-0.825,0.316-1.109
				c0.726,0.752,1.393,1.564,1.742,2.692c-0.752,0.409-1.762,0.561-3.009,0.475c1.253,1.808,2.659,3.464,3.484,5.701
				c-0.231,0.97-1.346,1.089-1.584,2.059c-0.211,0.897,0.416,1.86,0.159,3.167c-3.854,0.686-6.744-1.498-9.502-2.851
				c-6.473-3.18-12.965-6.169-19.162-9.343c-2.125-0.119-3.933,0.667-5.859,0.475c-0.818-0.085-1.551-0.508-2.375-0.633
				c-2.402-0.363-4.85-0.726-7.443-0.475c-0.363,0.633-0.053,1.953-0.159,2.851c-1.042,0.066-1.907-0.515-3.167-0.634
				c-0.634-0.059-1.406,0.178-2.059,0c-0.528-0.145-2.554-1.749-2.851-2.375c-0.31-0.66-0.165-1.643-0.317-2.375
				c-0.601-0.297-1.61-0.178-2.217-0.475c0,0.633,0,1.267,0,1.9c-0.865,0.165-1.577-0.442-2.217,0
				c-0.422,1.563,1.755,1.267,1.425,2.217c-0.871,0.667-1.623-0.139-2.217-0.633C90.551,319.943,89.779,320.596,88.909,321.15z"/>
			<path fill="#C5A653" d="M100.944,223.6c-1.643,0.35-3.345,0.026-4.909-0.158c-1.32-0.95-2.633-1.907-4.276-2.534
				c-1.346,0.237-2.699,0.468-3.8,0.95c-1.029,2.25-1.881,4.995-4.593,5.226c-2.54,0.218-4.229-1.715-5.859-3.167
				c2-2.283,5.371-3.181,7.285-5.542c2.943,0.099,5.82-0.607,8.393,0c0.798,0.191,1.762,0.891,2.692,1.267
				C98.219,220.591,100.376,221.046,100.944,223.6z"/>
		</g>
		<g>
		</g>
	</g>
	<g id="XMLID_6_">
		<g>
			<path fill="#7C7B65" d="M146.482,329.535c0.495,0.455,1.327,0.943,1.425,1.742c-1.359-0.383-2.784-1.326-3.959-2.375
				c-1.604-1.432-3.088-3.266-4.276-5.226c-0.429-0.706-0.6-1.452-0.95-2.217c-0.68-1.504-1.538-2.956-1.9-4.434
				c-0.106-0.436-0.04-1.082-0.159-1.583c-0.25-1.082-0.178-1.531,0.178-2.765c-0.046,0.812,0.277,1.762,0.772,2.131
				c-0.119,0.6,0.191,0.759,0.159,1.267C139.831,321.432,142.549,325.926,146.482,329.535z"/>
			<path fill="#7C7B65" d="M133.813,314.491c1.828,5.081,4.183,9.495,7.443,13.144c1.069,1.194,2.527,2.019,3.484,3.326
				c-7.43-3.181-11.085-10.135-12.352-19.479c0.752,0.25,0.613,1.392,1.267,1.742C133.583,313.771,133.714,314.115,133.813,314.491z
				"/>
			<path fill="#7C7B65" d="M136.868,312.577c-0.006,0.033-0.02,0.066-0.026,0.099c0-0.033,0-0.073,0.007-0.105
				C136.855,312.571,136.862,312.577,136.868,312.577z"/>
			<path fill="#7C7B65" d="M106.575,228.659c0.158,2.428-1.082,4.467-2.428,5.384c0.112-0.382,0.706-1.88,0.317-2.322
				c-0.456-0.719-1.63-0.653-2.554-0.673c-2.349-0.053-3.068,0.277-3.068,0.277c-2.553-2.917-3.121-3.247-5.18-5.827
				c0.238-1.293-0.481-4.526-4.823-3.959c0.105-0.158,1.458-0.363,2.956-0.64c0.158,0,1.062,0.554,1.221,0.554
				c1.095,0.541,1.861,1.188,3.055,1.979c0.066,0.046,1.069,0.138,2.606,0.29c0.37,0.04,1.194,0.073,1.676-0.033
				c0.343-0.066,0.627-0.099,0.627-0.099c0.31,0.271,0.436,0.35,0.759,0.535c0.436,0.244,1.775,0.488,2.25,0.891
				C105.124,225.98,105.724,226.574,106.575,228.659z"/>
			<path fill="#7C7B65" d="M101.983,295.804c-0.31-0.99-0.607-2.21-0.792-3.326c-1.458-8.75-1.188-18.871-0.633-28.663
				c0.316-5.529,1.63-13.276,1.702-17.34c0.079,0.31,0.554,0.277,0.673,0.871c0,0,0.877-0.033,0.95,0
				c0.64,0.304,1.749,1.135,3.009,1.267c0,0,1.762,1.142,3.774,2.125c3.53,3.062,4.824,4.236,9.211,8.011
				c1.353,0.95,2.065,1.563,2.969,2.388c0.687,0.621,1.861,1.848,2.864,3.675c0.792,1.445,1.729,2.508,2.652,3.992
				c1.419,2.283,1.452,2.461,2.917,4.83c0.449,0.732,0.95,1.722,1.379,2.474c0.904,1.597,1.59,4.019,2.481,5.859
				c0.686,2.092,1.927,7.305,2.263,9c0.25,1.267,0.963,1.563,0.845,2.303c-0.416,2.593,2.751,4.652,3.009,6.018
				c-0.383,0.409-0.924-0.079-0.95,0.475c0.462,1.438,0.594,1.874,1.234,4.137c0.667,2.831,1.122,3.899,1.458,5.364
				c1.287,2.118,2.435,3.029,3.972,4.461c0.488,0.455,2.184,2.138,2.521,2.666c0.125,0.198-0.026,0.739,0.317,1.59
				c0.244,0.6,1.181,2.355,1.267,3.161c0.04,0.138-0.581,0.006-0.897,0.066c-0.653,0.132-0.646-1.92-0.845-2.758
				c-0.587,0.007-0.455-0.264-0.832-0.468c0.073,0.95,0.746,1.069,0.04,1.894c-1.181-1.88-2.19-3.933-4.275-4.909
				c0.013,0.864,0.93,1.973,1.583,2.851c0.66,0.897,1.254,1.94,2.217,2.375c-1.934,0.191-2.877-1.973-3.959-3.167
				c-0.046-0.475,0.178-1.234-0.316-1.267c-1.241,0.897,1.122,1.715,0,2.534c0.957,1.418,2.369,2.382,3.484,3.642
				c-1.452,0.026-1.683-1.168-3.009-1.267c0.897,1.794,3.233,3.523,5.067,4.909c-0.851,0.851-1.914-0.37-2.534-0.792
				c-1.617-1.102-3.286-2.501-4.434-4.117c0.297,1.339,1.458,2.613,2.534,3.8c1.049,1.162,2.23,2.204,3.167,3.326
				c-1.848-0.25-2.785-1.386-4.118-2.692c-2.23-2.191-3.886-5.121-5.067-8.552c-0.152-0.429-0.139-1.108-0.158-1.9
				c-0.08-0.396-0.297-0.653-0.475-0.95c-0.119-0.594,0.191-0.759,0.158-1.267c-0.271-0.363-0.937-0.231-1.465-0.33
				c-0.046,0.146-0.079,0.304-0.092,0.469c-1.61-0.627-2.197-1.128-3.985-1.089c-0.046,0-1.003-0.607-1.175-0.646
				c-1.729-0.356-6.169-1.438-8.301-1.94c-5.899-1.379-9.33-1.947-13.045-1.947c-2.441,0.007-5.008,0.422-5.984-0.851
				c-0.739-0.963-0.112-2.395-0.159-3.959C104.121,299.526,102.643,297.909,101.983,295.804z M144.106,320.508
				c0.244-0.389-0.541-0.468-0.475-0.158c0.099,0.007,0.185,0.026,0.159,0.158C143.896,320.508,144.001,320.508,144.106,320.508z
				 M143.473,317.975c0-0.211,0-0.422,0-0.633c-0.158,0-0.316,0-0.475,0C142.952,317.757,143.058,318.021,143.473,317.975z
				 M143.315,315.758c0.554-0.297,0.165-1.115,0-1.584c-0.158,0-0.317,0-0.475,0C142.893,314.808,142.635,315.751,143.315,315.758z
				 M142.84,317.183c-0.541-1.624-0.759-3.392-2.395-3.913c0.006,0.436-0.244,0.112,0.02,0.429c0.442,0.542,0.581,1.248,0.95,1.9
				C141.725,316.147,142.187,316.958,142.84,317.183z M139.672,316.074c0.64,0.026,0.548-1.075,0-1.108
				C139.672,315.335,139.672,315.705,139.672,316.074z M139.197,314.174c0.291-0.237,0.548-0.95,0.238-1.306
				c-0.211,0-0.501-0.119-0.712-0.119C138.782,313.323,138.663,314.075,139.197,314.174z"/>
			<path fill="#7C7B65" d="M103.929,245.769c-0.858,0.416-2.032-0.277-1.683,0.495c-2.481-1.405-4.493-4.856-6.209-7.779
				c0.105,0,2.395,2.025,5.292,4.751C101.864,243.743,103.005,244.838,103.929,245.769z"/>
			<path fill="#7C7B65" d="M92.112,223.275c-0.653,1.28-2.798,0.304-1.848-0.792C91.214,222.305,91.762,222.839,92.112,223.275z"/>
			<path fill="#7C7B65" d="M89.288,224.238c0.422,0.7,0.858,0.719,1.557,1.412c-4.645,5.318-10.135,11.818-15.361,17.835
				c-0.726,0.838-1.986,2.355-3.035,3.365c-1.828,1.755-2.699,3.734-4.084,2.824c0.198-1.775,0.963-2.923,1.623-4.025
				c1.234-2.072,0.772-4.031,2.224-5.747c0.145-0.778-0.719-0.284-0.686-0.95c0.316-1.201,1.313-2.224,1.267-3.167
				c-0.488-0.402-1.749,0.165-2.059-0.475c0.396-0.818,1.373-0.673,1.583-1.583c-0.877-0.376-1.155-0.04-1.742-0.634
				c0.059-1.794,0.778-2.322,1.267-2.85c0.917-0.033,1.399,0.402,1.9-0.159c-0.468-2.29-3.458-2.349-4.117-2.692
				c0.33-0.66,1.471-0.601,2.059-0.634c0.105-0.402-0.205-1.267,0.158-1.9c0.772-0.086,0.732,0.112,1.425,0.633
				c1.115-0.607,1.234-0.752,2.329-1.181c0.647-0.251,1.327-0.99,1.947-0.402c2.936,2.778,4.15,3.338,5.859,3.167
				c2.652-0.264,3.312-2.844,4.553-5.219C89.367,221.256,88.291,222.602,89.288,224.238z"/>
			<path fill="#7C7B65" d="M92.422,301.485c0.363,2.29,1.056,2.844,1.201,6.763c0.145,4.019-4.282,6.203-7.469,7.298
				c-1.313-4.632-1.9-6.446-3.016-9.766c-5.721-5.879-12.722-13.685-16.14-21.326c-1.623-3.629-3.075-8.782-3.338-10.029
				c-0.594-2.837-1.445-6.163-1.749-9.687c-0.119-1.32,0.046-2.355,0.125-4.071c0.06-1.557-0.29-2.098,0.363-3.411
				c0.97-1.947,0.587-3.57,1.418-4.052c1.689-0.29,2.58-1.583,3.801-2.527c1.26,0.085,2.474-0.04,4.144-0.31
				c1.108,1.135,0.97,2.448,1.155,3.84c0.231,1.788,0.264,3.926,0.436,5.648c0.343,3.431,0.93,7.152,1.418,10.412
				c0.383,2.56,0.521,4.731,1.709,7.067c0.983,1.94,2.778,3.972,4.124,5.569c3.563,4.216,6.506,7.093,9.482,12.075
				c0.601,1.003,1.742,2.487,1.986,3.477C92.21,299.024,92.316,300.832,92.422,301.485z"/>
		</g>
		<g>
		</g>
	</g>
</g>
</svg>
